<?xml version="1.0" encoding="utf-8"?>
<!-- Generator: Adobe Illustrator 13.0.2, SVG Export Plug-In . SVG Version: 6.00 Build 14948)  -->
<!DOCTYPE svg PUBLIC "-//W3C//DTD SVG 1.1 Tiny//EN" "http://www.w3.org/Graphics/SVG/1.1/DTD/svg11-tiny.dtd">
<svg version="1.1" baseProfile="tiny" id="Layer_1" xmlns="http://www.w3.org/2000/svg" xmlns:xlink="http://www.w3.org/1999/xlink"
	 x="0px" y="0px" width="75.249px" height="71.773px" viewBox="0 0 75.249 71.773" xml:space="preserve">
<g>
	<path fill="#5A5959" d="M59.563,0c0.855,0,1.772,0.665,2.037,1.479L75.161,43.21c0.264,0.814-0.086,1.892-0.778,2.394
		L38.882,71.396c-0.692,0.503-1.825,0.503-2.517,0L0.866,45.604c-0.692-0.502-1.042-1.58-0.778-2.394l13.56-41.731
		C13.912,0.665,14.829,0,15.684,0H59.563z"/>
</g>
<path fill="#F8F9FA" d="M45.185,44.764h0.162l7.938-29.718c0.081-0.285,0.407-0.57,0.732-0.57h3.747
	c0.571,0,0.897,0.408,0.734,0.978L47.018,56.291c-0.082,0.325-0.408,0.57-0.735,0.57h-0.65c-0.367,0-0.612-0.205-0.693-0.447
	l-7.289-18.45h-0.204l-7.208,18.45c-0.122,0.242-0.285,0.447-0.693,0.447h-0.652c-0.326,0-0.651-0.245-0.732-0.57l-11.41-40.837
	c-0.163-0.57,0.163-0.978,0.733-0.978h3.747c0.326,0,0.652,0.285,0.733,0.57l7.948,29.718h0.162l5.256-13.627
	c-4.907-1.352-8.487-5.795-8.487-11.149c0-6.447,5.189-11.637,11.638-11.637c3.256,0,5.608,1.032,7.8,2.998
	c0.291,0.258,0.291,0.645,0.032,0.902l-1.965,2.031c-0.226,0.258-0.548,0.258-0.807,0c-1.354-1.192-3.158-1.902-4.964-1.902
	c-4.125,0-7.188,3.449-7.188,7.511c0,4.029,3.096,7.446,7.221,7.446c1.934,0,3.578-0.742,4.931-1.838
	c0.259-0.225,0.613-0.193,0.807,0l1.999,2.063c0.258,0.226,0.192,0.645-0.033,0.871c-1.794,1.742-3.978,2.727-6.285,3.028
	L45.185,44.764z"/>
</svg>
