<?xml version="1.0" encoding="utf-8"?>
<!-- Generator: Adobe Illustrator 13.0.2, SVG Export Plug-In . SVG Version: 6.00 Build 14948)  -->
<!DOCTYPE svg PUBLIC "-//W3C//DTD SVG 1.1 Tiny//EN" "http://www.w3.org/Graphics/SVG/1.1/DTD/svg11-tiny.dtd">
<svg version="1.1" baseProfile="tiny" id="Layer_1" xmlns="http://www.w3.org/2000/svg" xmlns:xlink="http://www.w3.org/1999/xlink"
	 x="0px" y="0px" width="190.421px" height="108.629px" viewBox="0 0 190.421 108.629" xml:space="preserve">
<g>
	<path fill="#5A5959" d="M117.286,0c0.861,0,1.783,0.669,2.05,1.489l13.646,41.992c0.266,0.819-0.086,1.902-0.783,2.409
		L96.476,71.844c-0.695,0.506-1.836,0.506-2.532-0.001L58.223,45.89c-0.696-0.507-1.048-1.59-0.783-2.409L71.084,1.489
		C71.35,0.669,72.272,0,73.134,0H117.286z"/>
</g>
<path fill="#F8F9FA" d="M102.817,45.044h0.164l7.986-29.904c0.082-0.287,0.41-0.574,0.738-0.574h3.77
	c0.574,0,0.902,0.411,0.738,0.984l-11.552,41.092c-0.082,0.328-0.409,0.573-0.739,0.573h-0.654c-0.369,0-0.615-0.205-0.697-0.45
	l-7.335-18.565h-0.205l-7.254,18.565c-0.122,0.245-0.287,0.45-0.696,0.45h-0.656c-0.328,0-0.656-0.245-0.738-0.573L74.207,15.55
	c-0.164-0.574,0.164-0.984,0.738-0.984h3.77c0.329,0,0.656,0.287,0.738,0.574l7.997,29.904h0.164l5.289-13.712
	c-4.937-1.361-8.54-5.831-8.54-11.219c0-6.487,5.222-11.709,11.709-11.709c3.277,0,5.645,1.038,7.851,3.017
	c0.292,0.26,0.292,0.649,0.031,0.908l-1.978,2.044c-0.228,0.259-0.551,0.259-0.812,0c-1.362-1.2-3.179-1.913-4.995-1.913
	c-4.151,0-7.233,3.47-7.233,7.557c0,4.055,3.114,7.493,7.266,7.493c1.946,0,3.6-0.746,4.962-1.849c0.261-0.227,0.616-0.194,0.812,0
	l2.011,2.076c0.259,0.228,0.194,0.649-0.033,0.876c-1.806,1.753-4.003,2.745-6.323,3.047L102.817,45.044z"/>
<g>
	<path fill="#5A5959" d="M13.089,93.3c-0.098-2.437-1.657-3.67-3.995-3.67c-2.468,0-4.06,1.299-4.06,3.864v6.886
		c0,2.565,1.591,3.865,3.995,3.865c2.468,0,4.06-1.3,4.06-3.865v-0.194h5.034v0.194c0,5.456-3.573,8.249-9.094,8.249
		c-5.456,0-9.029-2.793-9.029-8.249v-6.886c0-5.131,3.313-8.249,8.12-8.249c2.306,0,4.125,0.715,5.359,2.079l0.747-1.754h3.898
		v8.119h-5.034V93.3z"/>
	<path fill="#5A5959" d="M26.79,104.245h2.598v4.06h-9.906v-4.06h2.599V88.33h-2.599v-4.059h7.308V104.245z"/>
	<path fill="#5A5959" d="M36.432,91.416v10.815c0,1.591,1.039,2.339,2.663,2.339c1.624,0,2.696-0.748,2.696-2.339v-6.756h-2.598
		v-4.06H46.5v12.829h2.598v4.06h-6.171l-0.714-1.625c-1.039,1.3-2.631,1.949-4.547,1.949c-3.573,0-5.943-2.273-5.943-6.723v-6.431
		h-2.599v-4.06H36.432z"/>
	<path fill="#5A5959" d="M48.355,84.271h7.308v8.281c1.007-0.975,2.436-1.461,4.125-1.461c3.605,0,5.943,2.273,5.943,6.723v4.092
		c0,4.449-2.338,6.723-5.976,6.723c-1.949,0-3.508-0.649-4.547-1.949l-0.682,1.625h-3.573V88.33h-2.598V84.271z M61.021,97.49
		c0-1.592-1.039-2.34-2.663-2.34s-2.696,0.748-2.696,2.34v4.741c0,1.591,1.072,2.339,2.663,2.339c1.657,0,2.696-0.748,2.696-2.339
		V97.49z"/>
	<path fill="#5A5959" d="M72.778,108.305l-3.995-12.829h-1.916v-4.06h9.094v4.06h-2.436l2.079,7.503l2.663-11.563h4.709l2.63,11.563
		l2.079-7.503H85.25v-4.06h8.77v4.06h-1.917l-3.962,12.829h-5.294l-2.403-9.841l-2.371,9.841H72.778z"/>
	<path fill="#5A5959" d="M100.449,98.041c1.786,0,3.28,0.488,4.287,1.43v-2.338c0-1.365-0.877-2.177-2.273-2.177
		c-1.688,0-2.273,0.552-2.273,1.819H95.48c0-3.67,2.436-5.684,6.983-5.684c4.222,0,6.983,2.143,6.983,6.332v6.821h2.272v4.06h-5.846
		l-0.683-1.592c-1.006,1.267-2.663,1.916-4.773,1.916c-3.476,0-5.749-1.785-5.749-5.293S96.941,98.041,100.449,98.041z
		 M102.04,104.57c1.625,0,2.696-0.423,2.696-1.396c0-0.975-1.071-1.397-2.696-1.397c-1.623,0-2.662,0.423-2.662,1.397
		C99.378,104.147,100.417,104.57,102.04,104.57z"/>
	<path fill="#5A5959" d="M118.36,102.394c0,2.144,1.008,2.208,4.223,2.046v3.865c-7.178,1.104-8.932-1.43-8.932-6.073v-6.756h-2.598
		v-4.06h2.598v-4.547l4.709-1.43v5.977h4.223v4.06h-4.223V102.394z"/>
	<path fill="#5A5959" d="M134.019,97.847v-0.065c0-1.948-1.07-2.631-2.695-2.631c-1.623,0-2.663,0.748-2.663,2.34v4.741
		c0,1.591,1.071,2.339,2.663,2.339c1.656,0,2.695-0.748,2.695-2.339v-0.357h4.71v0.032c0,4.449-2.923,6.723-7.405,6.723
		c-4.449,0-7.372-2.273-7.372-6.723v-4.092c0-4.449,2.761-6.723,6.431-6.723c1.981,0,3.28,0.648,4.092,1.916l0.683-1.592h3.572
		v6.431H134.019z"/>
	<path fill="#5A5959" d="M147.079,92.586c1.007-1.008,2.436-1.494,4.125-1.494c3.572,0,5.943,2.273,5.943,6.723v6.431h2.598v4.06
		h-7.307V97.49c0-1.592-1.039-2.34-2.664-2.34c-1.623,0-2.695,0.748-2.695,2.34v6.755h2.599v4.06h-9.905v-4.06h2.598V88.33h-2.598
		v-4.059h7.307V92.586z"/>
	<path fill="#5A5959" d="M175.38,102.783c-0.422,3.93-3.15,5.846-7.373,5.846c-4.384,0-7.372-2.24-7.372-6.723v-4.092
		c0-4.449,2.923-6.723,7.405-6.723c4.449,0,7.373,2.273,7.373,6.723v3.508h-10.068v0.909c0,1.429,0.908,2.339,2.662,2.339
		c1.787,0,2.404-0.779,2.664-1.787H175.38z M165.345,97.912h5.358V97.49c0-1.592-1.039-2.34-2.663-2.34s-2.695,0.748-2.695,2.34
		V97.912z"/>
	<path fill="#5A5959" d="M190.421,95.476c-3.832-0.454-5.684,0.423-5.684,2.015v6.755h2.599v4.06h-9.905v-4.06h2.598v-8.77h-2.598
		v-4.06h6.17l0.813,1.884c1.396-1.722,3.605-2.599,6.008-2.046V95.476z"/>
</g>
</svg>
