<?xml version="1.0" encoding="utf-8"?>
<!-- Generator: Adobe Illustrator 13.0.2, SVG Export Plug-In . SVG Version: 6.00 Build 14948)  -->
<!DOCTYPE svg PUBLIC "-//W3C//DTD SVG 1.1 Tiny//EN" "http://www.w3.org/Graphics/SVG/1.1/DTD/svg11-tiny.dtd">
<svg version="1.1" baseProfile="tiny" xmlns="http://www.w3.org/2000/svg" xmlns:xlink="http://www.w3.org/1999/xlink" x="0px"
	 y="0px" width="345.132px" height="54.912px" viewBox="0 0 345.132 54.912" xml:space="preserve">
<g id="CareerID">
	<g>
		<path fill="#5A5959" d="M92.254,47.719c-4.222,0-5.957-0.637-7.518-2.197c-2.371-2.313-3.701-6.882-3.701-18.044
			c0-11.162,1.33-15.73,3.701-18.044c1.561-1.562,3.296-2.197,7.518-2.197h13.822c3.933,0,6.072,0.462,7.634,2.024
			c2.14,2.14,2.834,6.593,2.949,13.996h-11.625c-0.173-4.8-0.289-5.899-0.694-6.304c-0.347-0.347-0.983-0.463-2.486-0.463h-4.974
			c-1.792,0-2.313,0.116-2.66,0.463c-0.405,0.405-0.694,1.677-0.694,10.525s0.289,10.121,0.694,10.525
			c0.347,0.347,0.868,0.463,2.66,0.463h4.974c1.735,0,2.197-0.173,2.486-0.463c0.405-0.405,0.521-1.214,0.694-6.477h11.625
			c-0.115,7.519-0.81,11.971-2.949,14.111c-1.562,1.562-3.528,2.082-7.634,2.082H92.254z"/>
		<path fill="#5A5959" d="M139.384,23.892c-0.347-0.347-0.925-0.463-1.909-0.463h-2.198c-0.983,0-1.562,0.116-1.908,0.463
			c-0.405,0.405-0.463,0.867-0.521,2.313h-10.525c0.058-5.726,0.578-7.634,1.966-9.021c1.33-1.331,3.007-1.851,6.13-1.851h13.012
			c2.776,0,4.742,0.521,6.015,1.793c1.388,1.388,1.851,3.238,1.851,8.212v13.764h3.528v8.617h-14.921v-3.354
			c-3.643,3.007-5.031,3.412-7.865,3.412h-3.585c-2.834,0-4.337-0.347-5.61-1.619c-1.099-1.099-1.851-3.007-1.851-7.403
			c0-4.164,0.521-6.65,2.024-8.154c1.562-1.562,3.875-2.024,7.692-2.024c3.007,0,5.898,0.347,9.195,0.983v-2.198
			C139.904,24.817,139.789,24.297,139.384,23.892z M139.904,38.928v-4.337h-3.007c-2.834,0-3.702,0.173-4.28,0.751
			c-0.579,0.579-0.636,1.388-0.636,2.314c0,1.041,0.116,1.735,0.579,2.198c0.462,0.462,1.156,0.578,2.082,0.578
			C135.972,40.432,137.128,40.259,139.904,38.928z"/>
		<path fill="#5A5959" d="M176.509,39.102v8.617h-18.911v-8.617h3.701V23.95h-3.701v-8.617h15.152v5.263
			c3.47-3.701,5.146-5.263,7.807-5.263h2.544v11.046h-3.238c-2.544,0-4.396,0.231-7.113,1.388v11.335H176.509z"/>
		<path fill="#5A5959" d="M197.093,33.724c0,4.396,0.232,5.321,0.579,5.667c0.405,0.405,1.156,0.521,2.949,0.521h1.909
			c2.198,0,2.719-0.058,3.065-0.521c0.23-0.29,0.347-1.33,0.347-3.123h10.179c0,4.684-0.579,7.749-2.141,9.311
			c-0.982,0.983-2.254,2.14-6.245,2.14h-12.087c-3.413,0-4.974-0.521-6.478-2.082c-2.14-2.198-3.122-4.742-3.122-14.111
			c0-9.369,0.982-11.914,3.122-14.111c1.446-1.562,3.065-2.082,6.478-2.082h11.508c3.412,0,4.974,0.521,6.477,2.082
			c2.14,2.198,2.487,4.916,2.487,14.053v0.405c0,1.388-0.29,1.851-1.851,1.851H197.093z M197.093,28.75h8.328
			c0-3.354-0.23-4.742-0.521-5.089c-0.347-0.405-0.81-0.521-2.603-0.521h-1.677c-1.793,0-2.544,0.116-2.949,0.521
			S197.093,24.933,197.093,28.75z"/>
		<path fill="#5A5959" d="M231.327,33.724c0,4.396,0.232,5.321,0.579,5.667c0.404,0.405,1.156,0.521,2.949,0.521h1.909
			c2.198,0,2.718-0.058,3.065-0.521c0.231-0.29,0.347-1.33,0.347-3.123h10.179c0,4.684-0.579,7.749-2.141,9.311
			c-0.982,0.983-2.254,2.14-6.245,2.14h-12.086c-3.413,0-4.974-0.521-6.479-2.082c-2.14-2.198-3.122-4.742-3.122-14.111
			c0-9.369,0.982-11.914,3.122-14.111c1.446-1.562,3.065-2.082,6.479-2.082h11.508c3.412,0,4.974,0.521,6.477,2.082
			c2.14,2.198,2.488,4.916,2.488,14.053v0.405c0,1.388-0.29,1.851-1.851,1.851H231.327z M231.327,28.75h8.328
			c0-3.354-0.23-4.742-0.521-5.089c-0.347-0.405-0.81-0.521-2.603-0.521h-1.677c-1.793,0-2.544,0.116-2.949,0.521
			C231.501,24.065,231.327,24.933,231.327,28.75z"/>
		<path fill="#5A5959" d="M273.31,39.102v8.617h-18.911v-8.617h3.701V23.95h-3.701v-8.617h15.152v5.263
			c3.47-3.701,5.146-5.263,7.808-5.263h2.544v11.046h-3.238c-2.544,0-4.395,0.231-7.113,1.388v11.335H273.31z"/>
		<path fill="#5A5959" d="M302.917,38.697v9.021h-20.762v-9.021h4.452V16.258h-4.452V7.236h20.762v9.021h-4.453v22.439H302.917z"/>
		<path fill="#5A5959" d="M340.911,10.417c2.775,2.776,4.222,6.94,4.222,17.061s-1.446,14.285-4.222,17.061
			c-2.43,2.429-5.553,3.181-11.393,3.181H306.21v-9.021h4.281V16.258h-4.281V7.236h23.308
			C335.358,7.236,338.481,7.988,340.911,10.417z M322.346,38.697h5.263c2.603,0,3.586-0.174,4.165-0.752
			c0.635-0.635,0.867-2.313,0.867-10.467c0-8.097-0.232-9.832-0.867-10.468c-0.579-0.579-1.563-0.752-4.165-0.752h-5.263V38.697z"/>
	</g>
</g>
<g id="CID_Background">
	<g>
		<path fill="#5A5959" d="M0,16.855c0-6.342,0.955-8.95,3.297-11.295C6.769,1.998,13.626,0,30.375,0
			c16.75,0,23.606,1.998,27.078,5.561c2.343,2.345,3.298,4.953,3.298,11.295v21.2c0,6.343-0.955,8.95-3.298,11.296
			c-3.472,3.563-10.328,5.561-27.078,5.561c-16.75,0-23.607-1.997-27.078-5.561C0.955,47.006,0,44.398,0,38.056V16.855z"/>
	</g>
</g>
<g id="CID">
	<g>
		<path fill="#F9F9F9" d="M20.978,40.956h-6.403c-2.816,0-3.974-0.424-5.016-1.466c-1.582-1.543-2.469-4.592-2.469-12.038
			s0.887-10.494,2.469-12.037c1.042-1.042,2.199-1.465,5.016-1.465h6.403l0,6.172H17.66c-1.195,0-1.543,0.078-1.775,0.31
			c-0.27,0.27-0.462,1.119-0.462,7.021c0,5.903,0.192,6.752,0.462,7.023c0.231,0.23,0.58,0.309,1.775,0.309h3.318L20.978,40.956z"/>
		<path fill="#F9F9F9" d="M37.314,34.784v6.172h-13.85v-6.172h2.971V20.122h-2.971V13.95h13.85v6.172h-2.97v14.662H37.314z"/>
		<path fill="#F9F9F9" d="M39.813,13.95h6.404c2.816,0,3.974,0.424,5.016,1.466c1.582,1.543,2.469,4.591,2.469,12.038
			c0,7.445-0.887,10.493-2.469,12.037c-1.042,1.042-2.2,1.466-5.016,1.466h-6.404v-6.172h3.318c1.195,0,1.543-0.078,1.774-0.309
			c0.27-0.271,0.462-1.12,0.462-7.021c0-5.903-0.192-6.753-0.462-7.022c-0.231-0.231-0.58-0.31-1.774-0.31h-3.318V13.95z"/>
	</g>
</g>
</svg>
