<?xml version="1.0" encoding="utf-8"?>
<!-- Generator: Adobe Illustrator 13.0.2, SVG Export Plug-In . SVG Version: 6.00 Build 14948)  -->
<!DOCTYPE svg PUBLIC "-//W3C//DTD SVG 1.1 Tiny//EN" "http://www.w3.org/Graphics/SVG/1.1/DTD/svg11-tiny.dtd">
<svg version="1.1" baseProfile="tiny" id="Layer_1" xmlns="http://www.w3.org/2000/svg" xmlns:xlink="http://www.w3.org/1999/xlink"
	 x="0px" y="0px" width="172.301px" height="81.703px" viewBox="0 0 172.301 81.703" xml:space="preserve">
<g>
	<g>
		<g>
			<path fill="#595959" d="M48.22,26.151v-3.641c0-7.23,4.307-12.358,12.306-12.358c7.896,0,11.896,5.281,11.896,11.691v4.666
				H54.988v0.667c0,3.128,1.59,5.846,5.641,5.846c2.974,0,4.82-1.539,5.486-3.385h6.103c-0.923,4.872-5.692,8.41-11.589,8.41
				C53.091,38.047,48.22,33.637,48.22,26.151z M54.988,21.587h11.025v-0.667c0-3.333-1.744-5.846-5.487-5.846
				c-4,0-5.538,2.667-5.538,6.256V21.587z"/>
			<path fill="#595959" d="M76.014,25.997v-3.794c0-6.82,4.563-12.05,12.563-12.05c7.999,0,12.562,5.23,12.562,12.05v3.794
				c0,6.82-4.563,12.05-12.562,12.05C80.577,38.047,76.014,32.817,76.014,25.997z M94.371,21.741c0-3.487-1.846-6.102-5.793-6.102
				c-3.948,0-5.795,2.615-5.795,6.102v4.718c0,3.486,1.847,6.102,5.795,6.102c3.948,0,5.793-2.615,5.793-6.102V21.741z"/>
			<path fill="#595959" d="M136.395,0h6.975v37.432h-6.975V0z"/>
			<path fill="#595959" d="M148.089,26.151v-3.641c0-7.23,4.308-12.358,12.307-12.358c7.896,0,11.896,5.281,11.896,11.691v4.666
				h-17.435v0.667c0,3.128,1.59,5.846,5.642,5.846c2.974,0,4.819-1.539,5.485-3.385h6.103c-0.923,4.872-5.691,8.41-11.588,8.41
				C152.961,38.047,148.089,33.637,148.089,26.151z M154.858,21.587h11.025v-0.667c0-3.333-1.744-5.846-5.487-5.846
				c-3.999,0-5.538,2.667-5.538,6.256V21.587z"/>
		</g>
		<g>
			<path fill="#595959" d="M33.374,10.153c-3.846,0-6.563,1.744-7.897,3.794v-3.179h-6.666l0.003,30.083l0.004,8.136
				c-1.487-2-4.103-3.487-7.64-3.487C4,45.501,0,50.834,0,57.244v4.41c0,6.307,4.051,11.742,11.229,11.742
				c3.846,0,6.563-1.743,7.896-3.794v3.179h6.666l-0.003-31.929l-0.004-6.291c1.384,2.051,4.103,3.487,7.64,3.487
				c7.179,0,11.179-5.333,11.179-11.742v-4.41C44.604,15.588,40.706,10.153,33.374,10.153z M18.818,61.346
				c0,3.743-2.359,6.409-5.897,6.409c-4.051,0-5.948-2.871-5.948-6.409v-3.794c0-3.744,2.051-6.41,5.999-6.41
				c3.179,0,5.846,2.256,5.846,6.307V61.346z M37.629,25.997c0,3.744-2.05,6.41-5.999,6.41c-3.179,0-5.846-2.256-5.846-6.307v-3.897
				c0-3.743,2.359-6.41,5.897-6.41c4.051,0,5.948,2.872,5.948,6.41V25.997z"/>
			<path fill="#595959" d="M31.173,61.5v-3.641c0-7.23,4.307-12.358,12.306-12.358c7.896,0,11.896,5.282,11.896,11.691v4.666H37.941
				v0.667c0,3.128,1.59,5.846,5.64,5.846c2.974,0,4.82-1.539,5.487-3.384h6.102c-0.923,4.872-5.692,8.409-11.588,8.409
				C36.044,73.396,31.173,68.986,31.173,61.5z M37.941,56.936h11.024v-0.667c0-3.333-1.744-5.845-5.487-5.845
				c-4,0-5.538,2.667-5.538,6.256V56.936z"/>
			<path fill="#595959" d="M59.592,64.884v-0.461h6.153v0.359c0,2.307,2.103,3.692,5.385,3.692c2.923,0,5.076-1.179,5.076-3.23
				c0-1.282-0.667-2.051-2.205-2.41l-7.896-1.794c-4-0.923-6.102-2.974-6.102-7.025c0-5.487,4.461-8.512,10.768-8.512
				c6.41,0,10.563,3.231,10.563,8.512v0.41h-6.101v-0.461c0-2.051-1.283-3.487-4.359-3.487c-2.82,0-4.359,1.025-4.359,2.923
				c0,1.333,0.667,1.948,2.051,2.256l8.102,1.999c3.949,0.975,5.949,3.077,5.949,6.82c0,5.179-4.923,8.922-11.538,8.922
				C64.31,73.396,59.592,70.576,59.592,64.884z"/>
			<path fill="#595959" d="M120.365,10.153c-3.846,0-6.563,1.744-7.896,3.794v-3.179h-6.666l0,35.468l0,3.06
				c-1.231-2.153-4.052-3.794-7.897-3.794c-7.179,0-11.23,5.384-11.23,11.743v4.41c0,6.41,4,11.742,11.178,11.742
				c3.539,0,6.461-1.589,7.641-3.436v11.743h7.282l0.001-35.467V34.561c1.383,2.051,4.102,3.487,7.64,3.487
				c7.178,0,11.179-5.333,11.179-11.742v-4.41C131.595,15.588,127.698,10.153,120.365,10.153z M105.494,61.448
				c0,4.051-2.667,6.307-5.847,6.307c-3.948,0-5.999-2.666-5.999-6.409v-3.794c0-3.539,1.897-6.41,5.949-6.41
				c3.538,0,5.897,2.666,5.897,6.41V61.448z M124.621,25.997c0,3.744-2.051,6.41-5.999,6.41c-3.18,0-5.845-2.256-5.845-6.307v-3.897
				c0-3.743,2.357-6.41,5.896-6.41c4.052,0,5.948,2.872,5.948,6.41V25.997z"/>
		</g>
	</g>
	<path fill="#595959" d="M120.434,55.956v-10.46h51.867v10.46H120.434z"/>
</g>
</svg>
